<svg xmlns="http://www.w3.org/2000/svg" xmlns:xlink="http://www.w3.org/1999/xlink" width="80" height="80" viewBox="0 0 80 80">
    <defs>
        <path id="a" d="M76.744 0A3.26 3.26 0 0 1 80 3.265v19.331a22.66 22.66 0 0 0-2.096-2.966c-2.354-2.825-5.378-5.025-9.073-6.6-3.695-1.576-7.896-2.363-12.604-2.363-5.365 0-10.305 1.222-14.821 3.666-4.516 2.445-8.102 5.88-10.757 10.308-2.655 4.427-3.982 9.547-3.982 15.359 0 5.812 1.327 10.932 3.982 15.36 2.655 4.426 6.24 7.862 10.757 10.307 4.516 2.444 9.456 3.666 14.82 3.666 6.57 0 12.153-1.616 16.752-4.848 2.877-2.022 5.218-4.592 7.024-7.71L80 76.735A3.26 3.26 0 0 1 76.744 80H3.256A3.26 3.26 0 0 1 0 76.735V3.265A3.26 3.26 0 0 1 3.256 0h73.488zM55.98 21.748c3.778 0 6.953.896 9.525 2.689 2.573 1.793 4.325 4.319 5.256 7.578L80 30.81v18.388l-9.24-1.213c-.944 3.124-2.592 5.574-4.944 7.35l-.31.228c-2.519 1.793-5.584 2.689-9.197 2.689-3.449 0-6.46-.774-9.032-2.322-2.573-1.549-4.544-3.694-5.912-6.437-1.369-2.744-2.053-5.908-2.053-9.493 0-3.53.67-6.681 2.012-9.452 1.34-2.77 3.27-4.93 5.788-6.478 2.519-1.548 5.474-2.322 8.868-2.322z"/>
    </defs>
    <use fill="#FFFFFF" fill-rule="evenodd" xlink:href="#a"/>
</svg>
