<svg xmlns="http://www.w3.org/2000/svg" width="242" height="40" viewBox="0 0 242 40">
    <g fill="none" fill-rule="evenodd">
        <path fill="#FFF" d="M166.453 11.132c2.856 0 5.406.63 7.65 1.888 2.243 1.258 3.986 2.98 5.228 5.163 1.243 2.183 1.864 4.644 1.864 7.383s-.621 5.2-1.864 7.384c-1.242 2.183-2.985 3.904-5.229 5.162C171.86 39.371 169.31 40 166.453 40c-2.855 0-5.396-.63-7.62-1.888-2.226-1.258-3.96-2.979-5.202-5.162-1.243-2.184-1.864-4.645-1.864-7.384 0-2.739.621-5.2 1.864-7.383 1.242-2.184 2.976-3.905 5.201-5.163 2.225-1.259 4.766-1.888 7.621-1.888zm44.894-8.91v37.223h-6.397v-2.998c-.964 1.036-2.179 1.888-3.644 2.554-1.465.666-3.161.999-5.09.999-2.225 0-4.339-.574-6.341-1.721-2.003-1.147-3.616-2.813-4.84-4.996-1.224-2.184-1.836-4.756-1.836-7.717 0-2.998.594-5.588 1.78-7.772 1.187-2.184 2.782-3.84 4.784-4.969 2.003-1.128 4.21-1.693 6.62-1.693 1.743 0 3.338.278 4.784.833 1.447.555 2.708 1.332 3.783 2.332V5.908l6.397-3.686zm16.802 8.91c2.633 0 4.97.565 7.01 1.693 2.039 1.13 3.634 2.767 4.783 4.914 1.15 2.146 1.725 4.681 1.725 7.605v1.943h-21.25c.148 2.258.936 4.043 2.364 5.357 1.427 1.314 3.254 1.971 5.48 1.971 1.89 0 3.448-.435 4.672-1.305 1.224-.87 2.095-2.063 2.614-3.58l5.508.333.222.277c-.927 3.11-2.512 5.496-4.756 7.162-2.244 1.665-5.034 2.498-8.372 2.498-2.745 0-5.174-.601-7.288-1.804-2.113-1.203-3.745-2.896-4.895-5.08-1.15-2.183-1.724-4.7-1.724-7.55 0-2.813.64-5.31 1.919-7.494 1.28-2.184 2.976-3.886 5.09-5.108 2.114-1.221 4.413-1.832 6.898-1.832zm-88.677 0c2.967 0 5.275.842 6.926 2.526 1.65 1.684 2.475 3.914 2.475 6.69v19.097h-6.342V21.958c0-1.703-.435-3.007-1.307-3.914-.871-.907-2.142-1.36-3.81-1.36-1.41 0-2.773.435-4.09 1.304-1.316.87-2.438 1.99-3.365 3.359v18.098h-6.341V11.687h6.341v3.609c1.15-1.184 2.55-2.174 4.2-2.97 1.65-.796 3.421-1.194 5.313-1.194zm58.024 5.44c-2.3 0-4.19.769-5.674 2.305s-2.226 3.765-2.226 6.69c0 2.923.742 5.153 2.226 6.689 1.483 1.536 3.393 2.304 5.73 2.304 2.04 0 3.782-.667 5.229-1.999 1.446-1.332 2.169-2.98 2.169-4.94v-4.053c0-1.999-.723-3.664-2.17-4.997-1.446-1.332-3.207-1.998-5.284-1.998zm-31.043.167c-2.447 0-4.45.787-6.008 2.36-1.557 1.573-2.336 3.728-2.336 6.467 0 2.739.779 4.895 2.336 6.468 1.558 1.573 3.56 2.359 6.008 2.359 2.485 0 4.506-.786 6.064-2.36 1.557-1.572 2.336-3.728 2.336-6.467 0-2.776-.779-4.94-2.336-6.495-1.558-1.555-3.579-2.332-6.064-2.332zm61.696-.444c-1.929 0-3.588.565-4.979 1.693-1.39 1.13-2.271 2.693-2.642 4.691h15.186c-.185-1.998-.982-3.562-2.392-4.69-1.409-1.13-3.133-1.694-5.173-1.694z"/>
        <path fill="#865EFC" d="M19.575 33.778c2.736 0 5.056-.685 6.96-2.056 1.904-1.37 3.207-3.278 3.91-5.722l6.488.5.222.444c-1.036 4.075-3.097 7.269-6.184 9.584C27.884 38.843 24.104 40 19.631 40c-3.586 0-6.876-.833-9.871-2.5s-5.37-4.019-7.126-7.056C.878 27.407 0 23.926 0 20c0-3.926.878-7.407 2.634-10.444C4.39 6.519 6.765 4.166 9.76 2.5 12.755.833 16.045 0 19.631 0c3.105 0 5.887.546 8.346 1.639 2.458 1.092 4.473 2.63 6.044 4.611 1.572 1.981 2.635 4.25 3.19 6.806l-.278.444-6.488.5c-.666-2.444-1.96-4.352-3.882-5.722-1.923-1.37-4.289-2.056-7.098-2.056-2.514 0-4.714.584-6.6 1.75-1.885 1.167-3.336 2.797-4.353 4.89C7.496 14.953 6.987 17.332 6.987 20s.518 5.046 1.553 7.139c1.035 2.092 2.505 3.722 4.409 4.889 1.904 1.166 4.113 1.75 6.626 1.75zM48.483 40c-2.514 0-4.612-.75-6.294-2.25-1.682-1.5-2.524-3.51-2.524-6.028 0-2.555.879-4.583 2.635-6.083 1.756-1.5 4.075-2.398 6.96-2.695l8.04-.833v-1.5c0-1.444-.471-2.546-1.414-3.305-.943-.76-2.246-1.14-3.91-1.14-1.404 0-2.569.353-3.493 1.056-.924.704-1.516 1.741-1.775 3.111l-5.49-.277-.277-.223c.518-2.814 1.811-4.972 3.882-6.472 2.07-1.5 4.529-2.25 7.375-2.25 3.365 0 6.082.843 8.152 2.528 2.07 1.685 3.106 3.99 3.106 6.917v11.388c0 .89.194 1.575.582 2.056.388.481.933.722 1.636.722.332 0 .74-.055 1.22-.166l.166.11v4.556c-1.109.37-2.274.556-3.494.556-1.33 0-2.513-.315-3.549-.945-1.035-.63-1.793-1.666-2.273-3.11h-.222C54.897 38.573 51.884 40 48.482 40zm1.164-5.167c2.662 0 5.213-1.407 7.653-4.222v-4.055l-7.209.833c-1.405.185-2.486.639-3.244 1.361s-1.137 1.602-1.137 2.639c0 1.111.37 1.963 1.11 2.555.739.593 1.681.89 2.827.89zm33.899-14.666c-.26-1.37-.85-2.417-1.775-3.14-.924-.721-2.07-1.083-3.438-1.083-1.072 0-1.997.223-2.773.667-.776.445-1.164 1.093-1.164 1.945 0 .888.536 1.63 1.608 2.222 1.072.592 2.939 1.259 5.6 2 2.958.778 5.14 1.796 6.544 3.055 1.405 1.26 2.108 2.945 2.108 5.056 0 1.704-.453 3.25-1.36 4.639-.905 1.389-2.171 2.481-3.798 3.278-1.626.796-3.512 1.194-5.656 1.194-3.29 0-5.952-.769-7.986-2.306-2.033-1.537-3.29-3.675-3.77-6.416l.11-.334 5.269-.888c.37 1.518 1.053 2.685 2.051 3.5.999.814 2.459 1.222 4.381 1.222 1.368 0 2.505-.297 3.41-.89.907-.592 1.36-1.407 1.36-2.444s-.518-1.86-1.553-2.472c-1.035-.61-2.865-1.25-5.49-1.916-2.847-.704-4.973-1.713-6.378-3.028-1.404-1.315-2.107-3.047-2.107-5.195 0-1.407.407-2.703 1.22-3.889.813-1.185 1.96-2.12 3.438-2.805 1.48-.685 3.161-1.028 5.047-1.028 2.957 0 5.37.695 7.237 2.083 1.867 1.39 2.985 3.38 3.355 5.973l-.167.277-5.323.723zM100.586 40c-2.514 0-4.612-.75-6.295-2.25-1.682-1.5-2.523-3.51-2.523-6.028 0-2.555.878-4.583 2.634-6.083 1.756-1.5 4.076-2.398 6.96-2.695l8.04-.833v-1.5c0-1.444-.47-2.546-1.413-3.305-.943-.76-2.246-1.14-3.91-1.14-1.405 0-2.57.353-3.493 1.056-.925.704-1.516 1.741-1.775 3.111l-5.49-.277-.277-.223c.517-2.814 1.811-4.972 3.882-6.472 2.07-1.5 4.528-2.25 7.375-2.25 3.364 0 6.081.843 8.152 2.528 2.07 1.685 3.105 3.99 3.105 6.917v11.388c0 .89.194 1.575.583 2.056.388.481.933.722 1.635.722.333 0 .74-.055 1.22-.166l.167.11v4.556c-1.11.37-2.274.556-3.494.556-1.33 0-2.514-.315-3.549-.945-1.035-.63-1.793-1.666-2.274-3.11h-.221C107 38.573 103.987 40 100.585 40zm1.164-5.167c2.662 0 5.213-1.407 7.653-4.222v-4.055l-7.21.833c-1.404.185-2.486.639-3.243 1.361-.758.722-1.137 1.602-1.137 2.639 0 1.111.37 1.963 1.109 2.555.74.593 1.682.89 2.828.89z"/>
    </g>
</svg>
