<svg xmlns="http://www.w3.org/2000/svg" width="59" height="60" viewBox="0 0 59 60">
    <g fill="#FFF" fill-rule="nonzero">
        <path d="M1 60h16a1 1 0 0 0 1-1V37a1 1 0 0 0-.293-.707L15 33.586V30a1 1 0 0 0-1-1h-2V13.5a7.5 7.5 0 0 1 15 0v32C27 53.508 33.492 60 41.5 60S56 53.508 56 45.5V21h2a1 1 0 0 0 1-1V7a1 1 0 0 0-1-1h-1V1a1 1 0 0 0-1-1h-6a1 1 0 0 0-1 1v5h-1a1 1 0 0 0-1 1v13a1 1 0 0 0 1 1h2v24.5a8.5 8.5 0 1 1-17 0v-32C33 6.044 26.956 0 19.5 0S6 6.044 6 13.5V29H4a1 1 0 0 0-1 1v3.586L.293 36.293A1 1 0 0 0 0 37v22a1 1 0 0 0 1 1zm15-2H2v-4h2v2h2v-2h2v2h2v-2h2v2h2v-2h2v4zM51 2h4v4h-4V2zm-2 6h8v11h-8V8zm3 13h2v4h-2v-4zM8 13.5C8 7.149 13.149 2 19.5 2S31 7.149 31 13.5v32C31 51.299 35.701 56 41.5 56S52 51.299 52 45.5V27h2v18.5C54 52.404 48.404 58 41.5 58S29 52.404 29 45.5v-32a9.5 9.5 0 0 0-19 0V29H8V13.5zM4.707 34.707A1 1 0 0 0 5 34v-3h8v3a1 1 0 0 0 .293.707L16 37.414V52H2V37.414l2.707-2.707z"/>
        <path d="M6 44.618l2-1V48h2v-7.382l2 1V44h2v-3a1 1 0 0 0-.553-.9L10 38.382V36H8v5.382l-3.447 1.723A1 1 0 0 0 4 44v2h2v-1.382z"/>
    </g>
</svg>
