<svg xmlns="http://www.w3.org/2000/svg" xmlns:xlink="http://www.w3.org/1999/xlink" width="28" height="28" viewBox="0 0 28 28">
    <defs>
        <path id="a" d="M16.752 16.649c-.193.779-.895 1.138-2.103 1.078-.458-.03-1.296-.194-2.516-.494L12.956 14c1.332.32 2.155.548 2.47.689 1.086.498 1.53 1.152 1.326 1.96zm.631-16.2c3.737.943 6.598 3.065 8.581 6.363 1.993 3.299 2.523 6.82 1.589 10.564-.934 3.744-3.053 6.613-6.353 8.604-3.312 1.981-6.843 2.505-10.59 1.572-3.737-.945-6.598-3.066-8.58-6.364C.045 17.89-.484 14.368.44 10.624 1.375 6.89 3.493 4.02 6.793 2.02 10.116.04 13.645-.485 17.383.448zm-.63 11.494c-.175.78-.735 1.154-1.684 1.122-.31-.01-.977-.162-2.002-.453l.71-3.279c1.007.28 1.655.502 1.945.67.87.467 1.213 1.116 1.03 1.94zm.425-6.2l-1.49-.39-.592 2.464-1.203-.297.593-2.463-1.49-.39-.623 2.542-3.01-.796-.397 1.653c.74.166 1.1.26 1.08.28.488.125.72.422.7.89l-.7 2.871.152.062-.152-.046-.973 4.023c-.131.333-.364.457-.7.375.01.01-.355-.085-1.095-.28l-.745 1.747 3.026.794-.623 2.558 1.49.358.623-2.511 1.201.312-.623 2.527 1.49.374.623-2.542c1.42.27 2.525.28 3.315.032.932-.291 1.592-.993 1.977-2.106.567-1.706.106-2.947-1.385-3.727 1.096-.25 1.734-1.004 1.917-2.262.132-.874-.096-1.606-.685-2.2-.487-.51-1.257-.951-2.312-1.325l.611-2.527z"/>
    </defs>
    <g fill="none" fill-rule="evenodd">
        <mask id="b" fill="#fff">
            <use xlink:href="#a"/>
        </mask>
        <use fill="#FF7200" xlink:href="#a"/>
        <g fill="#FFF" mask="url(#b)">
            <path d="M0 0h28v28H0z"/>
        </g>
    </g>
</svg>
