<svg xmlns="http://www.w3.org/2000/svg" xmlns:xlink="http://www.w3.org/1999/xlink" width="29" height="28" viewBox="0 0 29 28">
    <defs>
        <path id="a" d="M27.82 0C28.472 0 29 .512 29 1.143l.002 6.768a7.937 7.937 0 0 0-.762-1.04c-.853-.99-1.95-1.76-3.289-2.31-1.34-.552-2.862-.828-4.569-.828-1.944 0-3.735.428-5.372 1.284a9.903 9.903 0 0 0-3.9 3.607c-.962 1.55-1.443 3.342-1.443 5.376 0 2.034.48 3.826 1.443 5.376a9.903 9.903 0 0 0 3.9 3.607c1.637.856 3.428 1.284 5.372 1.284 2.381 0 4.405-.566 6.072-1.697a8.512 8.512 0 0 0 2.548-2.701L29 26.857c0 .631-.528 1.143-1.18 1.143H1.18C.528 28 0 27.488 0 26.857V1.143C0 .512.528 0 1.18 0h26.64zm-7.527 7.612c1.37 0 2.52.314 3.453.941.932.627 1.567 1.511 1.905 2.652L29 10.783v6.436l-3.35-.424c-.329 1.053-.895 1.887-1.699 2.503l-.205.149c-.913.627-2.024.941-3.334.941-1.25 0-2.342-.27-3.274-.813a5.444 5.444 0 0 1-2.143-2.253c-.496-.96-.744-2.067-.744-3.322 0-1.236.243-2.339.729-3.308a5.383 5.383 0 0 1 2.098-2.267c.913-.542 1.985-.813 3.215-.813z"/>
    </defs>
    <g fill="none" fill-rule="evenodd">
        <path fill="#160C46" d="M7 2h22v23H7z"/>
        <mask id="b" fill="#fff">
            <use xlink:href="#a"/>
        </mask>
        <use fill="#95939F" xlink:href="#a"/>
        <g fill="#FFF" mask="url(#b)">
            <path d="M0-1h30v29H0z"/>
        </g>
    </g>
</svg>
