<svg xmlns="http://www.w3.org/2000/svg" xmlns:xlink="http://www.w3.org/1999/xlink" width="30" height="30" viewBox="0 0 30 30">
    <rect width="100%" height="100%" fill="white"/>
    <defs>
        <path id="a" d="M28.779 0C29.453 0 30 .548 30 1.224l.001 7.25c-.23-.389-.493-.76-.787-1.113-.883-1.06-2.017-1.884-3.402-2.475C24.426 4.296 22.85 4 21.085 4c-2.012 0-3.864.458-5.558 1.375a10.394 10.394 0 0 0-4.034 3.865C10.498 10.9 10 12.82 10 15c0 2.18.498 4.1 1.493 5.76a10.394 10.394 0 0 0 4.034 3.865c1.694.917 3.546 1.375 5.558 1.375 2.463 0 4.557-.606 6.282-1.818a8.996 8.996 0 0 0 2.635-2.894L30 28.776c0 .676-.547 1.224-1.221 1.224H1.22A1.223 1.223 0 0 1 0 28.776V1.224C0 .548.547 0 1.221 0H28.78zm-7.786 8.156c1.416 0 2.607.336 3.572 1.008.964.672 1.621 1.62 1.97 2.842L30 11.553v6.896l-3.465-.455c-.34 1.129-.927 2.023-1.758 2.682l-.212.16c-.945.672-2.094 1.008-3.45 1.008-1.292 0-2.421-.29-3.386-.87a5.751 5.751 0 0 1-2.217-2.414c-.513-1.029-.77-2.216-.77-3.56 0-1.324.251-2.506.754-3.544.503-1.04 1.227-1.85 2.171-2.43.944-.58 2.053-.87 3.326-.87z"/>
    </defs>
    <use fill="#865efc" fill-rule="evenodd" xlink:href="#a"/>
</svg>
