<svg xmlns="http://www.w3.org/2000/svg" width="80" height="80" viewBox="0 0 80 80">
    <g fill="none" fill-rule="evenodd">
        <circle cx="41.2" cy="43.6" r="28.4" fill="#FFF" fill-rule="nonzero"/>
        <path fill="#2DCCCD" d="M40 0c22.091 0 40 17.909 40 40S62.091 80 40 80 0 62.091 0 40 17.909 0 40 0zm13.938 21.176c-.372 0-.697.14-.972.415L33.575 40.976l-5.103-5.132c-.276-.26-.6-.39-.972-.39-.39 0-.722.131-.997.39l-7.266 7.296a1.247 1.247 0 0 0-.413.948c0 .357.136.69.413.998l13.34 13.327c.291.277.614.414.971.414l.05-.025h.024c.405 0 .73-.13.972-.39l27.582-27.604c.26-.26.389-.576.389-.948s-.131-.697-.39-.973l-7.29-7.296a1.245 1.245 0 0 0-.947-.415z"/>
    </g>
</svg>
