<svg xmlns="http://www.w3.org/2000/svg" width="97" height="80" viewBox="0 0 97 80">
    <g fill="none" fill-rule="evenodd">
        <path fill="#FFF" d="M2.222 53.553l45.123 25.558L95.11 52.134V26.695L49.85 1.778 2.222 27.855z"/>
        <path fill="#EEEDEE" fill-rule="nonzero" d="M94.15 27.153l2.73-.042s-.079 22.705 0 23.642c.109 1.291-.781 2.68-2.618 3.75L53.121 78.476c-3.17 1.847-7.958 2.044-10.695.44L1.844 55.14C.521 54.365-.08 53.31.01 52.22c.095-1.166 0-23.615 0-23.624l2.729-.011c0 .244 0 .244.002.443l.005 1.227a6405.362 6405.362 0 0 1 .03 10.171c.014 7.294.005 11.392-.046 12.016 0-.002.056.09.496.347l40.582 23.775c1.846 1.082 5.586.928 7.939-.443l41.14-23.971c.567-.33.954-.673 1.16-.974.097-.143.114-.2.114-.195-.045-.532-.052-4.549-.04-12.039a6257.976 6257.976 0 0 1 .025-10.153l.004-1.24.002-.396zm2.73-.042s-.079 22.705 0 23.642c.109 1.291-.781 2.68-2.618 3.75L53.121 78.476c-3.17 1.847-7.958 2.044-10.695.44L1.844 55.14C.521 54.365-.08 53.31.01 52.22c.095-1.166 0-23.615 0-23.624l2.729-.011c0 .244 0 .244.002.443l.005 1.227a6405.362 6405.362 0 0 1 .03 10.171c.014 7.294.005 11.392-.046 12.016 0-.002.056.09.496.347l40.582 23.775c1.846 1.082 5.586.928 7.939-.443l41.14-23.971c.567-.33.954-.673 1.16-.974.097-.143.114-.2.114-.195-.045-.532-.052-4.549-.04-12.039a6257.976 6257.976 0 0 1 .025-10.153l.004-1.24.002-.396 2.729-.042z"/>
        <path fill="#E3E3E3" fill-rule="nonzero" d="M55.556 52.39v13.388L87.11 47.377V34.222z"/>
        <path fill="#EEEDEE" fill-rule="nonzero" d="M53.773 2.272c-2.292-1.35-6.556-1.173-9.317.444L3.314 26.807c-2.34 1.37-2.529 2.885-.78 3.915l40.582 23.895c2.292 1.35 6.556 1.173 9.317-.444l41.141-24.092c2.34-1.37 2.53-2.885.78-3.915L53.773 2.272zm.69-1.182l40.582 23.895c2.737 1.612 2.387 4.423-.783 6.28L53.121 55.355c-3.17 1.856-7.958 2.054-10.695.442L1.844 31.904c-2.737-1.612-2.387-4.423.783-6.28l41.14-24.091c3.17-1.856 7.959-2.054 10.696-.443z"/>
        <path fill="#E3E3E3" fill-rule="nonzero" d="M94.262 31.368c3.17-1.836 3.52-4.617.783-6.211L54.463 1.523C51.726-.071 46.937.125 43.768 1.96L2.627 25.79c-3.17 1.835-3.52 4.616-.783 6.21l1.381-2.337c-.76-.443-.734-.659.777-1.534L45.143 4.3c2.353-1.362 6.093-1.515 7.94-.44l40.58 23.634c.762.443.735.658-.776 1.534l1.375 2.34zm0 0c3.17-1.836 3.52-4.617.783-6.211L54.463 1.523C51.726-.071 46.937.125 43.768 1.96L2.627 25.79c-3.17 1.835-3.52 4.616-.783 6.21l1.381-2.337c-.76-.443-.734-.659.777-1.534L45.143 4.3c2.353-1.362 6.093-1.515 7.94-.44l40.58 23.634c.762.443.735.658-.776 1.534l1.375 2.34z"/>
        <path fill="#865EFC" d="M65.53 30.102c.174-.893-.023-1.789-.592-2.689-.568-.9-1.51-1.746-2.825-2.54-1.499-.904-3.239-1.522-5.22-1.855a18.481 18.481 0 0 0-6.037-.004c-2.045.33-3.922 1.005-5.632 2.025-1.71 1.02-2.846 2.143-3.407 3.368-.561 1.224-.57 2.432-.028 3.623.542 1.19 1.562 2.238 3.06 3.142 1.836 1.108 3.871 1.765 6.107 1.973 1.473.137 2.959.068 4.458-.21l-5.881 3.51-20.644-12.46L50.467 15.11l20.644 12.46-5.934 3.54c.17-.328.287-.665.354-1.01zM57.485 35.7l-2.292-1.826a9.128 9.128 0 0 1-3.698.444 7.744 7.744 0 0 1-3.36-1.078c-.964-.582-1.577-1.225-1.84-1.93-.263-.706-.183-1.415.242-2.128.425-.712 1.165-1.383 2.22-2.012a11.118 11.118 0 0 1 3.343-1.32 10.16 10.16 0 0 1 3.524-.161 8.09 8.09 0 0 1 3.16 1.087c1.055.637 1.678 1.33 1.87 2.078.19.749-.063 1.488-.762 2.217l3.026 1.388-5.433 3.24z"/>
        <path fill="#ECECEC" fill-rule="nonzero" d="M95.418 28l-2.085 2.658 3.556.898v-3.041zM2.36 29.778l2.084 2.658-3.555.897v-3.04z"/>
        <path fill="#FFF" fill-rule="nonzero" d="M92.913 30.222c.436-.538.7-.956.794-1.253.094-.297.094-.768 0-1.413l-2.596.871 1.802 1.795zM3.946 31.556c-.443-.527-.712-.935-.807-1.226-.096-.29.057-.77.458-1.441l2.18.912-1.831 1.755z"/>
    </g>
</svg>
