<svg xmlns="http://www.w3.org/2000/svg" xmlns:xlink="http://www.w3.org/1999/xlink" width="238" height="86" viewBox="0 0 238 86">
    <defs>
        <path id="a" d="M76.744 0A3.26 3.26 0 0 1 80 3.265v19.331a22.66 22.66 0 0 0-2.096-2.966c-2.354-2.825-5.378-5.025-9.073-6.6-3.695-1.576-7.896-2.363-12.604-2.363-5.365 0-10.305 1.222-14.821 3.666-4.516 2.445-8.102 5.88-10.757 10.308-2.655 4.427-3.982 9.547-3.982 15.359 0 5.812 1.327 10.932 3.982 15.36 2.655 4.426 6.24 7.862 10.757 10.307 4.516 2.444 9.456 3.666 14.82 3.666 6.57 0 12.153-1.616 16.752-4.848 2.877-2.022 5.218-4.592 7.024-7.71L80 76.735A3.26 3.26 0 0 1 76.744 80H3.256A3.26 3.26 0 0 1 0 76.735V3.265A3.26 3.26 0 0 1 3.256 0h73.488zM55.98 21.748c3.778 0 6.953.896 9.525 2.689 2.573 1.793 4.325 4.319 5.256 7.578L80 30.81v18.388l-9.24-1.213c-.944 3.124-2.592 5.574-4.944 7.35l-.31.228c-2.519 1.793-5.584 2.689-9.197 2.689-3.449 0-6.46-.774-9.032-2.322-2.573-1.549-4.544-3.694-5.912-6.437-1.369-2.744-2.053-5.908-2.053-9.493 0-3.53.67-6.681 2.012-9.452 1.34-2.77 3.27-4.93 5.788-6.478 2.519-1.548 5.474-2.322 8.868-2.322z"/>
        <path id="c" d="M8.826 0c.392 0 .98.187 1.373.561.784.562.784 1.872-.196 2.62L6.187 6.822h12.195c.894 0 1.618.716 1.618 1.6 0 .882-.724 1.598-1.618 1.598l-12.136-.001 3.953 3.642c.743.709.782 1.754.117 2.499l-.117.12a1.96 1.96 0 0 1-2.746 0L.588 9.732c-.784-.749-.784-1.871 0-2.62L7.453.561C7.845.187 8.433 0 8.826 0z"/>
    </defs>
    <g fill="none" fill-rule="evenodd">
        <g transform="translate(158 6)">
            <mask id="b" fill="#fff">
                <use xlink:href="#a"/>
            </mask>
            <use fill="#95939F" xlink:href="#a"/>
            <g fill="#FFF" mask="url(#b)">
                <path d="M0-3.265h83.265V80H0z"/>
            </g>
        </g>
        <g transform="translate(87 26)">
            <circle cx="20" cy="20" r="20" fill="#2DCCCD"/>
            <g transform="rotate(-180 15.09 14.24)">
                <mask id="d" fill="#fff">
                    <use xlink:href="#c"/>
                </mask>
                <use fill="#3BCCFC" xlink:href="#c"/>
                <g fill="#0A0525" mask="url(#d)">
                    <path d="M0 0h20v16.842H0z"/>
                </g>
            </g>
        </g>
        <path fill="#FFF" fill-rule="nonzero" d="M48.034 43.775c-2.682-2.445-6.073-4.417-9.544-6.39-1.577-.867-6.389-4.653-4.732-10.016l-2.997-1.262c4.732-7.335 10.884-14.592 18.456-21.375-6.073 2.051-11.437 5.206-15.46 10.806 2.367-4.969 6.232-9.86 10.49-14.828-5.836 4.18-10.884 8.913-14.039 15.222L32.417 7.1c-3.155 5.678-5.363 11.436-6.231 17.194L21.532 22.4l-.788.631c4.101 7.335 1.971 11.2-.08 12.54-4.1 2.761-10.016 6.31-13.013 9.387C1.97 50.794.315 56.315.868 63.65c.552 9.386 7.414 17.194 16.484 20.27 4.023 1.341 7.73 1.499 11.831 1.499 6.625 0 13.409-1.735 18.378-5.916 5.284-4.338 8.36-10.963 8.36-17.746 0-6.862-2.84-13.409-7.887-17.983zM15.459 81.082c-7.335-3.55-12.225-11.2-12.54-17.431-.632-12.699 5.442-16.406 11.12-21.06 3.155-2.602 7.572-3.864 10.096-8.518.473-1.025.789-3.234.158-5.6-.237-.788-1.42-3.628-1.893-4.259l7.02 3.076c-.158 3.313-.237 5.995.394 8.44.71 2.681 4.18 6.546 5.6 11.042 2.76 8.518 2.05 19.64.079 28.315-.316 1.42-1.34 3.155-2.603 4.733.473-.868.868-1.735 1.104-2.682 1.972-7.02 2.84-10.253 1.893-17.983-.157-.789-.473-3.313-1.656-6.073-1.656-4.18-4.18-8.124-4.496-8.992-.552-1.34-1.34-7.02-1.42-10.884.08 3.312.316 9.386 1.184 11.752.236.788 2.524 4.338 4.18 8.676 1.104 2.997 1.34 5.758 1.577 6.546.79 3.55-.157 9.544-1.42 15.223-.394 2.05-1.498 4.417-2.918 6.23.789-1.103 1.42-2.523 1.893-4.18.947-3.312 1.341-7.571 1.262-10.253-.079-1.577-.788-4.969-1.972-8.045-.71-1.656-1.735-3.392-2.445-4.575-.788-1.183-.788-3.786-1.104-6.783.079 3.234-.237 4.89.552 7.178.473 1.34 2.209 3.233 2.682 5.048.71 2.445 1.42 5.126 1.34 6.783 0 1.893-.078 5.363-.946 9.149-.552 2.84-1.814 5.284-3.865 6.862.868-1.104 1.341-2.209 1.578-3.313.315-1.656.394-3.234.552-5.205.158-1.657.079-3.786-.394-6.074-.631-2.84-1.657-5.679-2.13-7.65.079 2.208.947 4.969 1.341 7.887.315 2.13.158 4.26.079 6.152-.079 2.209-.789 6.073-1.735 7.966-.947-.394-1.262-.946-1.893-1.735-.79-1.025-1.262-2.13-1.736-3.391-.394-.947-.788-2.051-1.025-3.234-.237-1.893-.158-4.812 1.972-7.809 1.656-2.366 1.972-2.524 2.524-5.284-.789 2.445-1.341 2.681-3.076 4.732-1.972 2.287-2.287 5.6-2.287 8.282 0 1.104.473 2.366.867 3.55.473 1.261.947 2.523 1.578 3.47.473.788 1.104 1.34 1.656 1.735-2.05-.552-4.18-1.341-5.521-2.445-3.313-2.84-6.231-7.651-6.626-11.91-.315-3.47 2.84-8.518 7.336-11.042 3.786-2.209 4.653-4.654 5.442-8.676-1.104 3.47-2.209 6.467-5.837 8.281-5.205 2.84-7.887 7.414-7.65 11.831.394 5.6 2.602 9.465 7.098 12.541 1.026.71 2.445 1.42 3.944 1.972-5.6-1.341-6.31-2.13-8.203-4.338 0-.158-.473-.473-.473-.552-2.524-2.84-5.68-7.73-6.783-12.226-.395-1.577-.79-3.233-.316-4.81 2.05-7.415 6.547-10.254 11.042-13.33 1.105-.79 2.209-1.499 3.234-2.288 2.524-1.972 3.155-7.098 3.707-10.017-1.025 3.55-2.13 7.967-4.101 9.386-1.025.789-2.287 1.42-3.313 2.13-4.653 3.155-9.307 6.152-11.436 13.803-.474 1.971-.158 3.391.315 5.284 1.183 4.654 4.338 9.702 7.02 12.699l.473.473c1.183 1.34 2.682 2.366 4.496 3.076a20.982 20.982 0 0 1-4.575-1.656z"/>
    </g>
</svg>
