<svg xmlns="http://www.w3.org/2000/svg" xmlns:xlink="http://www.w3.org/1999/xlink" width="211" height="26" viewBox="0 0 211 26">
    <defs>
        <path id="a" d="M10.118 10.775c-.167-.833-.517-1.47-1.051-1.91-.535-.44-1.194-.66-1.977-.66-.594 0-1.099.126-1.515.375-.415.25-.623.59-.623 1.017 0 .524.332.952.998 1.285.665.333 1.888.737 3.669 1.213 1.829.5 3.17 1.16 4.026 1.98.855.82 1.282 1.932 1.282 3.336 0 1.118-.29 2.122-.873 3.014-.582.892-1.413 1.594-2.493 2.105-1.081.512-2.334.767-3.759.767-2.09 0-3.794-.457-5.112-1.373C1.372 21.008.475 19.718 0 18.053l.143-.464 3.811-1.142c.428 1.998 1.722 2.997 3.884 2.997.736 0 1.336-.154 1.799-.464.463-.309.694-.737.694-1.284 0-.57-.267-1.017-.801-1.338-.534-.321-1.574-.684-3.117-1.088-1.877-.452-3.29-1.112-4.24-1.98-.95-.868-1.425-2.016-1.425-3.443 0-.951.267-1.814.802-2.587.534-.773 1.288-1.385 2.262-1.837.974-.452 2.09-.678 3.349-.678 1.9 0 3.444.41 4.631 1.231 1.188.82 1.96 1.98 2.316 3.479l-.178.392-3.812.928zM21.98 23.297a6.167 6.167 0 0 1-2.832-.66 5.114 5.114 0 0 1-2.066-1.89c-.511-.821-.766-1.778-.766-2.873 0-1.617.552-2.92 1.656-3.906 1.105-.987 2.642-1.576 4.614-1.766l4.81-.5v-.785c0-.808-.256-1.439-.767-1.89-.51-.453-1.229-.678-2.155-.678-.831 0-1.502.22-2.013.66-.51.44-.813 1.04-.908 1.801l-4.204-.356-.178-.215c.356-1.783 1.193-3.145 2.511-4.085s2.94-1.409 4.863-1.409c2.257 0 4.085.565 5.487 1.695 1.4 1.13 2.101 2.717 2.101 4.763v6.386c0 1.118.428 1.677 1.283 1.677.261 0 .487-.036.677-.107l.178.214v3.425c-.736.238-1.556.357-2.458.357-1.924 0-3.266-.809-4.026-2.426h-.214c-.783.832-1.615 1.468-2.493 1.908-.88.44-1.912.66-3.1.66zm1.14-3.781c1.591 0 3.016-.869 4.275-2.605v-2.07l-3.919.5c-.83.095-1.466.345-1.906.75-.439.404-.659.903-.659 1.498s.202 1.064.606 1.41c.404.344.938.517 1.603.517zM41.896 5.102h3.776V8.67h-3.776v8.776c0 .571.166 1.011.499 1.32.332.31.807.464 1.425.464.38 0 .855-.083 1.425-.25l.25.143v3.818a13.776 13.776 0 0 1-3.136.356c-1.662 0-2.98-.451-3.954-1.355-.974-.904-1.461-2.26-1.461-4.068V8.67h-3.17V5.102h3.17V0h.641l4.311 1.498v3.604zm14.642 5.673c-.166-.833-.516-1.47-1.05-1.91-.535-.44-1.194-.66-1.978-.66-.594 0-1.098.126-1.514.375-.416.25-.624.59-.624 1.017 0 .524.333.952.998 1.285.665.333 1.888.737 3.67 1.213 1.828.5 3.17 1.16 4.025 1.98.855.82 1.283 1.932 1.283 3.336 0 1.118-.291 2.122-.873 3.014-.582.892-1.413 1.594-2.494 2.105-1.08.512-2.333.767-3.758.767-2.09 0-3.795-.457-5.113-1.373-1.318-.916-2.215-2.206-2.69-3.871l.143-.464 3.812-1.142c.427 1.998 1.722 2.997 3.883 2.997.736 0 1.336-.154 1.8-.464.462-.309.694-.737.694-1.284 0-.57-.267-1.017-.802-1.338-.534-.321-1.573-.684-3.117-1.088-1.876-.452-3.29-1.112-4.24-1.98-.95-.868-1.424-2.016-1.424-3.443 0-.951.267-1.814.801-2.587.535-.773 1.289-1.385 2.262-1.837.974-.452 2.09-.678 3.35-.678 1.9 0 3.443.41 4.63 1.231 1.188.82 1.96 1.98 2.316 3.479l-.178.392-3.812.928z"/>
        <linearGradient id="c" x1="50%" x2="50%" y1="0%" y2="100%">
            <stop offset="0%" stop-color="#9EACFF"/>
            <stop offset="20.922%" stop-color="#FF6F69"/>
            <stop offset="47.807%" stop-color="#E958D2"/>
            <stop offset="100%" stop-color="#6800C7"/>
        </linearGradient>
    </defs>
    <g fill="none" fill-rule="evenodd">
        <path fill="#FFF" d="M69.274 17.16c.093 1.43.589 2.56 1.486 3.393.897.832 2.045 1.248 3.443 1.248 1.189 0 2.168-.275 2.937-.826.769-.551 1.316-1.307 1.643-2.268l3.46.21.14.177c-.582 1.969-1.579 3.48-2.988 4.536-1.41 1.055-3.164 1.582-5.262 1.582-1.724 0-3.25-.38-4.58-1.143a7.778 7.778 0 0 1-3.075-3.217c-.723-1.383-1.084-2.977-1.084-4.782 0-1.782.402-3.364 1.206-4.747.804-1.384 1.87-2.462 3.199-3.235a8.463 8.463 0 0 1 4.334-1.16c1.655 0 3.123.357 4.405 1.072 1.282.715 2.284 1.752 3.006 3.112.723 1.36 1.084 2.965 1.084 4.817v1.23H69.274zm9.614-2.919c-.117-1.266-.618-2.256-1.504-2.971-.885-.715-1.969-1.073-3.25-1.073-1.213 0-2.255.358-3.13 1.073-.873.715-1.427 1.705-1.66 2.971h9.544zm14.647.985l6.083 9.634h-4.475l-3.95-6.47-3.985 6.47h-4.475l6.118-9.634-5.419-7.947h4.545l3.216 4.923 3.216-4.923h4.544l-5.418 7.947zm13.494-7.947h3.915v3.165h-3.915v9.529c0 .586.169 1.037.506 1.354.338.316.834.474 1.486.474.536 0 1.084-.07 1.643-.21l.105.07v3.2c-.955.234-1.934.351-2.936.351-1.492 0-2.669-.416-3.531-1.248-.862-.832-1.294-2.046-1.294-3.64v-9.88h-3.25V7.279h3.25v-5.17h.315l3.706 1.302v3.868zm9.089 9.88c.093 1.43.588 2.562 1.485 3.394.898.832 2.045 1.248 3.444 1.248 1.188 0 2.167-.275 2.936-.826.77-.551 1.317-1.307 1.643-2.268l3.46.21.14.177c-.582 1.969-1.578 3.48-2.988 4.536-1.41 1.055-3.164 1.582-5.261 1.582-1.725 0-3.251-.38-4.58-1.143a7.778 7.778 0 0 1-3.076-3.217c-.722-1.383-1.084-2.977-1.084-4.782 0-1.782.402-3.364 1.206-4.747.804-1.384 1.87-2.462 3.199-3.235a8.463 8.463 0 0 1 4.335-1.16c1.654 0 3.123.357 4.404 1.072 1.282.715 2.284 1.752 3.007 3.112.722 1.36 1.083 2.965 1.083 4.817v1.23h-13.353zm9.613-2.918c-.117-1.266-.618-2.256-1.503-2.971-.886-.715-1.97-1.073-3.251-1.073-1.212 0-2.255.358-3.129 1.073-.874.715-1.427 1.705-1.66 2.971h9.543zm10.278-4.677c.722-.75 1.602-1.377 2.639-1.88a7.537 7.537 0 0 1 3.338-.757c1.865 0 3.315.533 4.353 1.6 1.037 1.067 1.555 2.48 1.555 4.237V24.86h-3.985V13.784c0-1.078-.274-1.905-.822-2.479-.547-.574-1.345-.861-2.394-.861-.886 0-1.742.275-2.57.826a7.635 7.635 0 0 0-2.114 2.127V24.86h-3.986V7.28h3.986v2.285zm24.155 3.095c-.163-.868-.536-1.53-1.118-1.987-.583-.457-1.305-.686-2.168-.686-.676 0-1.258.141-1.748.422-.489.282-.734.692-.734 1.231 0 .563.338 1.032 1.014 1.407.676.375 1.853.797 3.53 1.265 1.865.493 3.24 1.137 4.126 1.934.885.798 1.328 1.864 1.328 3.2a5.276 5.276 0 0 1-.856 2.936c-.571.88-1.37 1.571-2.395 2.075-1.025.504-2.214.756-3.566.756-2.074 0-3.752-.486-5.033-1.46-1.282-.972-2.075-2.326-2.378-4.06l.07-.212 3.321-.562c.233.961.665 1.7 1.294 2.215.629.516 1.55.774 2.761.774.863 0 1.58-.188 2.15-.563.571-.375.857-.89.857-1.547 0-.656-.326-1.178-.979-1.565s-1.806-.791-3.46-1.213c-1.795-.445-3.135-1.084-4.021-1.916-.886-.833-1.328-1.928-1.328-3.288 0-.89.256-1.711.769-2.462.512-.75 1.235-1.342 2.167-1.775.932-.434 1.993-.65 3.181-.65 1.865 0 3.385.439 4.562 1.318 1.177.879 1.882 2.139 2.115 3.78l-.105.176-3.356.457zM168.52 0c.676 0 1.259.246 1.748.738.49.493.734 1.079.734 1.759 0 .68-.244 1.265-.734 1.758-.49.492-1.072.738-1.748.738a2.323 2.323 0 0 1-1.73-.738 2.438 2.438 0 0 1-.717-1.758c0-.68.24-1.266.717-1.759a2.323 2.323 0 0 1 1.73-.738zm2.028 24.86h-4.02V7.28h4.02V24.86zm11.746-17.933c1.794 0 3.396.399 4.806 1.196a8.498 8.498 0 0 1 3.286 3.27c.781 1.383 1.171 2.942 1.171 4.677 0 1.734-.39 3.293-1.17 4.676a8.498 8.498 0 0 1-3.287 3.27c-1.41.798-3.012 1.196-4.806 1.196-1.795 0-3.391-.398-4.79-1.195a8.532 8.532 0 0 1-3.268-3.27c-.78-1.384-1.171-2.943-1.171-4.677 0-1.735.39-3.294 1.17-4.677a8.532 8.532 0 0 1 3.27-3.27c1.398-.797 2.994-1.196 4.789-1.196zm0 3.552c-1.539 0-2.797.498-3.776 1.494-.979.996-1.468 2.362-1.468 4.097 0 1.734.49 3.1 1.468 4.096.979.996 2.237 1.495 3.776 1.495 1.561 0 2.831-.499 3.81-1.495.979-.996 1.468-2.362 1.468-4.096 0-1.759-.49-3.13-1.468-4.114-.979-.985-2.249-1.477-3.81-1.477zm16.185-.915c.722-.75 1.602-1.377 2.64-1.88a7.537 7.537 0 0 1 3.338-.757c1.864 0 3.315.533 4.352 1.6 1.037 1.067 1.556 2.48 1.556 4.237V24.86h-3.986V13.784c0-1.078-.273-1.905-.821-2.479-.548-.574-1.346-.861-2.395-.861-.885 0-1.742.275-2.569.826a7.635 7.635 0 0 0-2.115 2.127V24.86h-3.985V7.28h3.985v2.285z"/>
        <g transform="translate(0 2.364)">
            <mask id="b" fill="#fff">
                <use xlink:href="#a"/>
            </mask>
            <use fill="#865EFC" fill-rule="nonzero" xlink:href="#a"/>
            <g fill="url(#c)" mask="url(#b)">
                <path d="M0-2.701h61.455v28.364H0z"/>
            </g>
        </g>
    </g>
</svg>
