<svg xmlns="http://www.w3.org/2000/svg" width="28" height="28" viewBox="0 0 28 28">
    <path fill="#FFF" fill-rule="evenodd" d="M27.296 15.964a1.944 1.944 0 0 1-1.905-1.96c.001-.51.202-1 .56-1.362a1.88 1.88 0 0 1 .614-.425c.23-.104.478-.163.73-.174a.484.484 0 0 0 .126 0 .728.728 0 0 0 .56-.86 15.097 15.097 0 0 0-.793-2.638c-.17-.423-.372-.846-.582-1.263-.21-.417-.454-.799-.705-1.182a.658.658 0 0 0-.081-.093.722.722 0 0 0-1.023-.034 1.96 1.96 0 0 1-2.73-.032 2.015 2.015 0 0 1-.586-1.348c0-.501.188-.985.526-1.356a.451.451 0 0 0 .093-.115c.11-.16.149-.358.11-.549a.719.719 0 0 0-.317-.461A13.813 13.813 0 0 0 19.465.82a14.586 14.586 0 0 0-2.607-.799.827.827 0 0 0-.155-.022.728.728 0 0 0-.739.714c-.011.51-.223.994-.59 1.347a1.958 1.958 0 0 1-1.362.56 1.954 1.954 0 0 1-1.36-.56 1.902 1.902 0 0 1-.42-.601 1.882 1.882 0 0 1-.167-.746C12.043.67 12.043.63 12.043.59a.71.71 0 0 0-.303-.455c-.159-.105-.351-.144-.537-.105A13.8 13.8 0 0 0 7.298 1.4c-.404.214-.797.449-1.176.706a.915.915 0 0 0-.104.081.746.746 0 0 0-.032 1.034c.354.363.547.854.535 1.36a1.945 1.945 0 0 1-1.928 1.934 1.902 1.902 0 0 1-1.361-.527.722.722 0 0 0-1.117.115A14.207 14.207 0 0 0 .812 8.53a15.005 15.005 0 0 0-.79 2.621.714.714 0 0 0 .69.89c.51.016.995.233 1.347.603.361.36.564.85.56 1.362.001.51-.201.998-.56 1.36-.172.179-.376.321-.603.42-.233.11-.486.17-.745.177H.586a.728.728 0 0 0-.56.86c.174.888.436 1.757.78 2.592a.307.307 0 0 0 0 .045c.18.424.381.838.595 1.244a12.856 12.856 0 0 0 .78 1.286c.28.29.742.3 1.035.023a1.993 1.993 0 0 1 1.371-.535 1.95 1.95 0 0 1 1.916 1.935c.012.505-.177.994-.526 1.36a.387.387 0 0 0-.081.104.717.717 0 0 0 .207 1.012 13.42 13.42 0 0 0 2.428 1.29c.84.35 1.712.617 2.605.793a.729.729 0 0 0 .907-.675 1.962 1.962 0 0 1 3.316-1.356c.178.173.322.38.42.608.108.236.164.492.165.75a.49.49 0 0 0 .023.127c.08.385.454.634.84.56.904-.18 1.787-.45 2.638-.804a13.6 13.6 0 0 0 1.258-.577c.406-.214.8-.45 1.182-.705a.724.724 0 0 0 .126-1.104 1.961 1.961 0 0 1 .044-2.73c.36-.363.846-.57 1.356-.58a2.01 2.01 0 0 1 1.36.527c.037.032.075.063.116.092a.712.712 0 0 0 1.003-.207 13.997 13.997 0 0 0 2.095-5.041.908.908 0 0 0 0-.155.72.72 0 0 0-.69-.74zm-13.293 3.52a5.485 5.485 0 1 1 5.482-5.48 5.474 5.474 0 0 1-5.482 5.48z"/>
</svg>
